<svg clip-rule="evenodd" fill-rule="evenodd" stroke-linejoin="round" stroke-miterlimit="2" viewBox="0 0 24 24" xmlns="http://www.w3.org/2000/svg"><path d="m16.5 11.998c0-1.242 1.008-2.25 2.25-2.25s2.25 1.008 2.25 2.25c0 1.241-1.008 2.25-2.25 2.25s-2.25-1.009-2.25-2.25zm1.5 0c0-.414.336-.75.75-.75s.75.336.75.75-.336.75-.75.75-.75-.336-.75-.75zm-8.25 0c0-1.242 1.008-2.25 2.25-2.25s2.25 1.008 2.25 2.25c0 1.241-1.008 2.25-2.25 2.25s-2.25-1.009-2.25-2.25zm1.5 0c0-.414.336-.75.75-.75s.75.336.75.75-.336.75-.75.75-.75-.336-.75-.75zm-8.25 0c0-1.242 1.008-2.25 2.25-2.25s2.25 1.008 2.25 2.25c0 1.241-1.008 2.25-2.25 2.25s-2.25-1.009-2.25-2.25zm1.5 0c0-.414.336-.75.75-.75s.75.336.75.75-.336.75-.75.75-.75-.336-.75-.75z"/></svg>